<svg width="28" height="28" viewBox="0 0 28 28" fill="none" xmlns="http://www.w3.org/2000/svg">
<path d="M9.6001 6.47504C10.4095 1.03009 18.2476 1.05329 19.2001 6.47504M24.3858 8.87554L26.3669 21.614C26.4295 22.0172 26.4034 22.429 26.2902 22.8212C26.1771 23.2135 25.9796 23.5769 25.7113 23.8866C25.4431 24.1963 25.1103 24.445 24.7359 24.6156C24.3614 24.7862 23.9542 24.8747 23.5419 24.875H4.46113C4.04866 24.8751 3.64107 24.7869 3.26628 24.6165C2.89149 24.446 2.55838 24.1974 2.28979 23.8877C2.02119 23.5779 1.82346 23.2144 1.71015 22.8219C1.59685 22.4295 1.57064 22.0174 1.63334 21.614L3.61437 8.87554C3.71828 8.20689 4.06075 7.59719 4.57974 7.15684C5.09874 6.71649 5.75994 6.47462 6.44359 6.47504H21.5595C22.2429 6.47496 22.9037 6.71698 23.4224 7.1573C23.9411 7.59762 24.2834 8.20714 24.3873 8.87554H24.3858Z" stroke="black" stroke-width="1.5" stroke-linejoin="round"/>
</svg>
